<svg width="16" height="18" viewBox="0 0 16 18" fill="none" xmlns="http://www.w3.org/2000/svg">
<g filter="url(#filter0_d_2001_871)">
<circle cx="8" cy="8" r="8" fill="url(#paint0_linear_2001_871)"/>
</g>
<path d="M6.16688 6.84021L8.91745 6.55567L7.71665 11.2134C7.63035 11.5505 7.75043 11.7423 8.08064 11.7423C8.3133 11.7423 8.66603 11.6711 8.90619 11.4979L8.80112 11.9093C8.45589 12.2495 7.69414 12.5 7.04121 12.5C6.1969 12.5 5.83666 12.0825 6.06932 11.1948L6.9549 7.76186C7.0337 7.47113 6.96241 7.36907 6.60967 7.29794L6.06932 7.21753L6.16688 6.84021Z" fill="white"/>
<path d="M9 4.48969C9 5.03711 8.4634 5.47938 7.79921 5.47938C7.13502 5.47938 6.59842 5.03711 6.59842 4.48969C6.59842 3.94227 7.13502 3.5 7.79921 3.5C8.4634 3.5 9 3.94227 9 4.48969Z" fill="white"/>
<defs>
<filter id="filter0_d_2001_871" x="0" y="0" width="16" height="18" filterUnits="userSpaceOnUse" color-interpolation-filters="sRGB">
<feFlood flood-opacity="0" result="BackgroundImageFix"/>
<feColorMatrix in="SourceAlpha" type="matrix" values="0 0 0 0 0 0 0 0 0 0 0 0 0 0 0 0 0 0 127 0" result="hardAlpha"/>
<feOffset dy="2"/>
<feComposite in2="hardAlpha" operator="out"/>
<feColorMatrix type="matrix" values="0 0 0 0 0.611312 0 0 0 0 0 0 0 0 0 0.265664 0 0 0 1 0"/>
<feBlend mode="normal" in2="BackgroundImageFix" result="effect1_dropShadow_2001_871"/>
<feBlend mode="normal" in="SourceGraphic" in2="effect1_dropShadow_2001_871" result="shape"/>
</filter>
<linearGradient id="paint0_linear_2001_871" x1="8" y1="0" x2="8" y2="16" gradientUnits="userSpaceOnUse">
<stop stop-color="#FF3AC2"/>
<stop offset="0.205" stop-color="#FF34AF"/>
<stop offset="0.48" stop-color="#FF267E"/>
<stop offset="0.705" stop-color="#FF2271"/>
<stop offset="1" stop-color="#FF1036"/>
</linearGradient>
</defs>
</svg>
